<mxfile host="65bd71144e">
    <diagram id="L0j0hsYtVssLy9CMbCmN" name="Page-1">
        <mxGraphModel dx="817" dy="727" grid="1" gridSize="10" guides="1" tooltips="1" connect="1" arrows="1" fold="1" page="1" pageScale="1" pageWidth="850" pageHeight="1100" math="0" shadow="0">
            <root>
                <mxCell id="0"/>
                <mxCell id="1" parent="0"/>
                <mxCell id="XwGP-8XHUUJIdA9AyvWH-7" style="edgeStyle=none;html=1;entryX=0.5;entryY=0;entryDx=0;entryDy=0;exitX=0.25;exitY=1;exitDx=0;exitDy=0;" edge="1" parent="1" source="2" target="XwGP-8XHUUJIdA9AyvWH-3">
                    <mxGeometry relative="1" as="geometry">
                        <Array as="points">
                            <mxPoint x="185" y="90"/>
                            <mxPoint x="185" y="100"/>
                            <mxPoint x="75" y="100"/>
                        </Array>
                    </mxGeometry>
                </mxCell>
                <mxCell id="XwGP-8XHUUJIdA9AyvWH-10" style="edgeStyle=none;html=1;exitX=0.75;exitY=1;exitDx=0;exitDy=0;entryX=0.5;entryY=0;entryDx=0;entryDy=0;" edge="1" parent="1">
                    <mxGeometry relative="1" as="geometry">
                        <Array as="points">
                            <mxPoint x="240" y="100"/>
                            <mxPoint x="360" y="100"/>
                        </Array>
                        <mxPoint x="240" y="60.00000000000006" as="sourcePoint"/>
                        <mxPoint x="360" y="120" as="targetPoint"/>
                    </mxGeometry>
                </mxCell>
                <mxCell id="XwGP-8XHUUJIdA9AyvWH-11" value="" style="edgeStyle=none;html=1;entryX=0.458;entryY=0;entryDx=0;entryDy=0;entryPerimeter=0;exitX=0.457;exitY=0.995;exitDx=0;exitDy=0;exitPerimeter=0;" edge="1" parent="1" source="2" target="XwGP-8XHUUJIdA9AyvWH-4">
                    <mxGeometry relative="1" as="geometry">
                        <mxPoint x="217" y="70" as="sourcePoint"/>
                        <Array as="points">
                            <mxPoint x="210" y="100"/>
                        </Array>
                    </mxGeometry>
                </mxCell>
                <mxCell id="2" value="USER&lt;div&gt;&lt;br&gt;&lt;/div&gt;" style="rounded=0;whiteSpace=wrap;html=1;" parent="1" vertex="1">
                    <mxGeometry x="155" y="20" width="120" height="40" as="geometry"/>
                </mxCell>
                <mxCell id="XwGP-8XHUUJIdA9AyvWH-3" value="Individual" style="rounded=0;whiteSpace=wrap;html=1;" vertex="1" parent="1">
                    <mxGeometry x="15" y="120" width="120" height="60" as="geometry"/>
                </mxCell>
                <mxCell id="XwGP-8XHUUJIdA9AyvWH-4" value="Company" style="rounded=0;whiteSpace=wrap;html=1;" vertex="1" parent="1">
                    <mxGeometry x="155" y="120" width="120" height="60" as="geometry"/>
                </mxCell>
                <mxCell id="XwGP-8XHUUJIdA9AyvWH-5" value="Admin" style="rounded=0;whiteSpace=wrap;html=1;" vertex="1" parent="1">
                    <mxGeometry x="305" y="120" width="120" height="60" as="geometry"/>
                </mxCell>
                <mxCell id="XwGP-8XHUUJIdA9AyvWH-12" style="edgeStyle=none;html=1;entryX=0.5;entryY=0;entryDx=0;entryDy=0;exitX=0.25;exitY=1;exitDx=0;exitDy=0;" edge="1" parent="1" source="XwGP-8XHUUJIdA9AyvWH-15" target="XwGP-8XHUUJIdA9AyvWH-16">
                    <mxGeometry relative="1" as="geometry">
                        <Array as="points">
                            <mxPoint x="560" y="100"/>
                            <mxPoint x="560" y="110"/>
                            <mxPoint x="520" y="110"/>
                        </Array>
                    </mxGeometry>
                </mxCell>
                <mxCell id="XwGP-8XHUUJIdA9AyvWH-13" style="edgeStyle=none;html=1;exitX=0.75;exitY=1;exitDx=0;exitDy=0;entryX=0.5;entryY=0;entryDx=0;entryDy=0;" edge="1" parent="1" source="XwGP-8XHUUJIdA9AyvWH-15" target="XwGP-8XHUUJIdA9AyvWH-18">
                    <mxGeometry relative="1" as="geometry">
                        <Array as="points">
                            <mxPoint x="620" y="110"/>
                            <mxPoint x="670" y="110"/>
                        </Array>
                    </mxGeometry>
                </mxCell>
                <mxCell id="XwGP-8XHUUJIdA9AyvWH-15" value="&lt;div&gt;Account&lt;/div&gt;" style="rounded=0;whiteSpace=wrap;html=1;" vertex="1" parent="1">
                    <mxGeometry x="530" y="30" width="120" height="40" as="geometry"/>
                </mxCell>
                <mxCell id="XwGP-8XHUUJIdA9AyvWH-16" value="Personal" style="rounded=0;whiteSpace=wrap;html=1;" vertex="1" parent="1">
                    <mxGeometry x="460" y="120" width="120" height="60" as="geometry"/>
                </mxCell>
                <mxCell id="XwGP-8XHUUJIdA9AyvWH-18" value="Bussiness&lt;span style=&quot;color: rgb(63, 63, 63); background-color: transparent;&quot;&gt;&amp;nbsp;&lt;/span&gt;" style="rounded=0;whiteSpace=wrap;html=1;" vertex="1" parent="1">
                    <mxGeometry x="610" y="120" width="120" height="60" as="geometry"/>
                </mxCell>
                <mxCell id="XwGP-8XHUUJIdA9AyvWH-19" style="edgeStyle=none;html=1;entryX=0.585;entryY=-0.012;entryDx=0;entryDy=0;exitX=0.25;exitY=1;exitDx=0;exitDy=0;entryPerimeter=0;" edge="1" parent="1" target="XwGP-8XHUUJIdA9AyvWH-23">
                    <mxGeometry relative="1" as="geometry">
                        <Array as="points">
                            <mxPoint x="335" y="270"/>
                            <mxPoint x="335" y="280"/>
                            <mxPoint x="190" y="280"/>
                            <mxPoint x="190" y="290"/>
                        </Array>
                        <mxPoint x="335" y="240" as="sourcePoint"/>
                        <mxPoint x="135" y="300" as="targetPoint"/>
                    </mxGeometry>
                </mxCell>
                <mxCell id="XwGP-8XHUUJIdA9AyvWH-20" style="edgeStyle=none;html=1;entryX=0.5;entryY=0;entryDx=0;entryDy=0;exitX=0.869;exitY=0.993;exitDx=0;exitDy=0;exitPerimeter=0;" edge="1" parent="1" source="XwGP-8XHUUJIdA9AyvWH-27" target="XwGP-8XHUUJIdA9AyvWH-25">
                    <mxGeometry relative="1" as="geometry">
                        <Array as="points">
                            <mxPoint x="424" y="260"/>
                            <mxPoint x="424" y="270"/>
                            <mxPoint x="424" y="280"/>
                            <mxPoint x="430" y="280"/>
                            <mxPoint x="580" y="280"/>
                        </Array>
                        <mxPoint x="430" y="250" as="sourcePoint"/>
                    </mxGeometry>
                </mxCell>
                <mxCell id="XwGP-8XHUUJIdA9AyvWH-21" value="" style="edgeStyle=none;html=1;entryX=0.458;entryY=0;entryDx=0;entryDy=0;entryPerimeter=0;exitX=0.25;exitY=1;exitDx=0;exitDy=0;" edge="1" parent="1">
                    <mxGeometry relative="1" as="geometry">
                        <mxPoint x="365.04000000000013" y="240.00000000000006" as="sourcePoint"/>
                        <Array as="points">
                            <mxPoint x="365.04" y="270"/>
                            <mxPoint x="365.04" y="290"/>
                            <mxPoint x="320.04" y="290"/>
                        </Array>
                        <mxPoint x="320.00000000000006" y="300" as="targetPoint"/>
                    </mxGeometry>
                </mxCell>
                <mxCell id="XwGP-8XHUUJIdA9AyvWH-22" value="&lt;div&gt;Transactions&lt;/div&gt;" style="rounded=0;whiteSpace=wrap;html=1;" vertex="1" parent="1">
                    <mxGeometry x="320" y="200" width="120" height="40" as="geometry"/>
                </mxCell>
                <mxCell id="XwGP-8XHUUJIdA9AyvWH-23" value="Deposit" style="rounded=0;whiteSpace=wrap;html=1;" vertex="1" parent="1">
                    <mxGeometry x="120" y="300" width="120" height="60" as="geometry"/>
                </mxCell>
                <mxCell id="XwGP-8XHUUJIdA9AyvWH-24" value="Withdrawal" style="rounded=0;whiteSpace=wrap;html=1;" vertex="1" parent="1">
                    <mxGeometry x="250" y="300" width="120" height="60" as="geometry"/>
                </mxCell>
                <mxCell id="XwGP-8XHUUJIdA9AyvWH-25" value="Payment" style="rounded=0;whiteSpace=wrap;html=1;" vertex="1" parent="1">
                    <mxGeometry x="520" y="300" width="120" height="60" as="geometry"/>
                </mxCell>
                <mxCell id="XwGP-8XHUUJIdA9AyvWH-26" value="Transfer" style="rounded=0;whiteSpace=wrap;html=1;" vertex="1" parent="1">
                    <mxGeometry x="380" y="300" width="120" height="60" as="geometry"/>
                </mxCell>
                <mxCell id="XwGP-8XHUUJIdA9AyvWH-29" style="edgeStyle=none;html=1;entryX=0.5;entryY=0;entryDx=0;entryDy=0;" edge="1" parent="1">
                    <mxGeometry relative="1" as="geometry">
                        <mxPoint x="390" y="240" as="sourcePoint"/>
                        <mxPoint x="430" y="300" as="targetPoint"/>
                        <Array as="points">
                            <mxPoint x="390" y="250"/>
                            <mxPoint x="390" y="290"/>
                            <mxPoint x="430" y="290"/>
                        </Array>
                    </mxGeometry>
                </mxCell>
                <mxCell id="XwGP-8XHUUJIdA9AyvWH-27" value="&lt;div&gt;Transactions&lt;/div&gt;" style="rounded=0;whiteSpace=wrap;html=1;" vertex="1" parent="1">
                    <mxGeometry x="320" y="200" width="120" height="40" as="geometry"/>
                </mxCell>
                <mxCell id="H5QJ3gzQASySAPyQpVfz-6" style="edgeStyle=none;html=1;entryX=0.5;entryY=0;entryDx=0;entryDy=0;exitX=0.25;exitY=1;exitDx=0;exitDy=0;" edge="1" parent="1" source="H5QJ3gzQASySAPyQpVfz-9" target="H5QJ3gzQASySAPyQpVfz-10">
                    <mxGeometry relative="1" as="geometry">
                        <Array as="points">
                            <mxPoint x="325" y="490"/>
                            <mxPoint x="325" y="500"/>
                            <mxPoint x="215" y="500"/>
                        </Array>
                    </mxGeometry>
                </mxCell>
                <mxCell id="H5QJ3gzQASySAPyQpVfz-7" style="edgeStyle=none;html=1;exitX=0.75;exitY=1;exitDx=0;exitDy=0;entryX=0.5;entryY=0;entryDx=0;entryDy=0;" edge="1" parent="1">
                    <mxGeometry relative="1" as="geometry">
                        <Array as="points">
                            <mxPoint x="380" y="500"/>
                            <mxPoint x="500" y="500"/>
                        </Array>
                        <mxPoint x="380" y="460.00000000000006" as="sourcePoint"/>
                        <mxPoint x="500" y="520" as="targetPoint"/>
                    </mxGeometry>
                </mxCell>
                <mxCell id="H5QJ3gzQASySAPyQpVfz-8" value="" style="edgeStyle=none;html=1;entryX=0.458;entryY=0;entryDx=0;entryDy=0;entryPerimeter=0;exitX=0.457;exitY=0.995;exitDx=0;exitDy=0;exitPerimeter=0;" edge="1" parent="1" source="H5QJ3gzQASySAPyQpVfz-9" target="H5QJ3gzQASySAPyQpVfz-11">
                    <mxGeometry relative="1" as="geometry">
                        <mxPoint x="357" y="470" as="sourcePoint"/>
                        <Array as="points">
                            <mxPoint x="350" y="500"/>
                        </Array>
                    </mxGeometry>
                </mxCell>
                <mxCell id="H5QJ3gzQASySAPyQpVfz-9" value="&lt;div&gt;Bill&lt;/div&gt;" style="rounded=0;whiteSpace=wrap;html=1;" vertex="1" parent="1">
                    <mxGeometry x="295" y="420" width="120" height="40" as="geometry"/>
                </mxCell>
                <mxCell id="H5QJ3gzQASySAPyQpVfz-10" value="Issued" style="rounded=0;whiteSpace=wrap;html=1;" vertex="1" parent="1">
                    <mxGeometry x="155" y="520" width="120" height="60" as="geometry"/>
                </mxCell>
                <mxCell id="H5QJ3gzQASySAPyQpVfz-11" value="Paid" style="rounded=0;whiteSpace=wrap;html=1;" vertex="1" parent="1">
                    <mxGeometry x="295" y="520" width="120" height="60" as="geometry"/>
                </mxCell>
                <mxCell id="H5QJ3gzQASySAPyQpVfz-12" value="Admin" style="rounded=0;whiteSpace=wrap;html=1;" vertex="1" parent="1">
                    <mxGeometry x="445" y="520" width="120" height="60" as="geometry"/>
                </mxCell>
            </root>
        </mxGraphModel>
    </diagram>
</mxfile>